<svg id="Layer_1" data-name="Layer 1" xmlns="http://www.w3.org/2000/svg" viewBox="0 0 19.59 23.43"><defs><style>.cls-1{fill:#7f3f98;fill-rule:evenodd;}</style></defs><path class="cls-1" d="M8.93,9.46h0C7.47,9.54,6.73,6.38,8.5,7a8.69,8.69,0,0,1,1-2.72q3.12,3.85,5.89,4A9.2,9.2,0,0,0,15.5,7c1.77-.66,1,2.5-.43,2.42h0C13.81,13.13,10.19,13.13,8.93,9.46ZM12,23.71c-3.27,0-6.07-.79-6.67-1.89l.34-4.09a.39.39,0,0,0-.36-.42.39.39,0,0,0-.42.35L4.54,21.9h0a3,3,0,0,1-2.36-1.19c.39-2.13.73-4.55,2.21-6a7.63,7.63,0,0,1,3.44-1.47v2.8a1.87,1.87,0,0,0-1.18.53h0a1.8,1.8,0,0,0-.54,1.3v1.27a.39.39,0,0,0,.39.39.4.4,0,0,0,.39-.39V17.92a1.07,1.07,0,0,1,.31-.75h0A1.07,1.07,0,0,1,8,16.85h.54a1.09,1.09,0,0,1,.76.31h0a1.07,1.07,0,0,1,.31.75v1.24a.4.4,0,0,0,.39.39.39.39,0,0,0,.39-.39V17.92a1.88,1.88,0,0,0-.54-1.31h0a1.9,1.9,0,0,0-1.19-.53v-3L9.25,13,12,20.71ZM14.75,13l.61.15V16.3a.94.94,0,0,0-.25.18h0a.89.89,0,0,0-.27.64.88.88,0,0,0,.27.64h0a.88.88,0,0,0,.64.27.89.89,0,0,0,.64-.27h0a.91.91,0,0,0,.26-.64.93.93,0,0,0-.26-.64h0a1.44,1.44,0,0,0-.25-.18v-3a7.63,7.63,0,0,1,3.44,1.47c1.48,1.41,1.82,3.83,2.21,6a3,3,0,0,1-2.33,1.19l-.35-4.23a.39.39,0,0,0-.42-.36.39.39,0,0,0-.36.42l.34,4.09h0c-.55,1-3,1.76-5.89,1.88V20.57l-.72-2Zm1-.56a3.8,3.8,0,0,0,2.49-4.11C17.9,5,15.54.28,12,.29S6.1,5,5.72,8.29c-.25,1.93.78,3.27,2.56,4.09l.36-.08h0l.42-.1.23,0,0-.06a.73.73,0,0,0,.08-.29A3.55,3.55,0,0,0,12,13a3.61,3.61,0,0,0,2.6-1.19.66.66,0,0,0,.07.3l0,.05.23,0,.42.1h0Z" transform="translate(-2.21 -0.29)"/></svg>