<svg id="Layer_1" data-name="Layer 1" xmlns="http://www.w3.org/2000/svg" xmlns:xlink="http://www.w3.org/1999/xlink" viewBox="0 0 48 48"><defs><style>.cls-1{fill:none;}.cls-2{clip-path:url(#clip-path);}.cls-3{fill:#7c4194;}</style><clipPath id="clip-path" transform="translate(0 0)"><rect class="cls-1" width="48" height="48"/></clipPath></defs><g class="cls-2"><path class="cls-3" d="M36.52,8.2a4.2,4.2,0,0,0-1.24-3l-4-4a4.29,4.29,0,0,0-3-1.24h-.24V8.44h8.47Z" transform="translate(0 0)"/><path class="cls-3" d="M25.68,29A5.7,5.7,0,0,1,27,26.82l9.52-9.48V11.25H26.67a1.37,1.37,0,0,1-1.36-1.41V0H4.22A4.22,4.22,0,0,0,0,4.22V43.78A4.22,4.22,0,0,0,4.22,48H32.3a4.25,4.25,0,0,0,4.25-4.22V33.29L35,34.79a5.55,5.55,0,0,1-2.19,1.35l-4.47,1.5-.68,0A3.51,3.51,0,0,1,24.34,33ZM7,25.31h14a1.41,1.41,0,0,1,0,2.82H7a1.41,1.41,0,1,1,0-2.82ZM5.62,21.09A1.41,1.41,0,0,1,7,19.69h14a1.41,1.41,0,0,1,0,2.81H7A1.41,1.41,0,0,1,5.62,21.09Zm0,11.25A1.41,1.41,0,0,1,7,30.94h14a1.41,1.41,0,0,1,0,2.81H7A1.41,1.41,0,0,1,5.62,32.34Zm21.05,7a1.41,1.41,0,1,1,0,2.81H18.24a1.41,1.41,0,1,1,0-2.81ZM7,16.88a1.41,1.41,0,0,1,0-2.82H26.67a1.41,1.41,0,0,1,0,2.82Z" transform="translate(0 0)"/><path class="cls-3" d="M28.23,30.26,27,33.93a.7.7,0,0,0,.89.89l3.66-1.22Z" transform="translate(0 0)"/><path class="cls-3" d="M39.15,18.69,29.89,28l4,4,9.26-9.26Z" transform="translate(0 0)"/><path class="cls-3" d="M47.17,14.65a2.79,2.79,0,0,0-2-.78,2.83,2.83,0,0,0-2,.78l-2,2,4,4,2-2A2.83,2.83,0,0,0,47.17,14.65Z" transform="translate(0 0)"/><path class="cls-3" d="M47.18,18.65Z" transform="translate(0 0)"/><path class="cls-3" d="M47.18,18.64h0Z" transform="translate(0 0)"/><path class="cls-3" d="M47.2,18.63Z" transform="translate(0 0)"/></g></svg>