<svg id="Layer_1" data-name="Layer 1" xmlns="http://www.w3.org/2000/svg" viewBox="0 0 39.17 46.86"><defs><style>.cls-1{fill:#7f3f98;fill-rule:evenodd;}</style></defs><path class="cls-1" d="M17.86,18.91h0c-2.92.16-4.4-6.16-.85-4.84a17.06,17.06,0,0,1,1.93-5.44q6.24,7.7,11.79,7.93A20.92,20.92,0,0,0,31,14.08c3.56-1.32,2.07,5-.85,4.84h0C27.62,26.26,20.38,26.26,17.86,18.91ZM24,47.43c-6.54,0-12.14-1.59-13.34-3.79l.68-8.18a.78.78,0,0,0-1.55-.13L9.08,43.8h.07a6.07,6.07,0,0,1-4.74-2.38c.8-4.25,1.47-9.11,4.43-11.91,1.66-1.58,4.36-2.35,6.89-2.94v5.58a3.68,3.68,0,0,0-2.37,1.08h0a3.7,3.7,0,0,0-1.09,2.61v2.54a.78.78,0,1,0,1.56,0V35.84a2.12,2.12,0,0,1,.63-1.51h0A2.12,2.12,0,0,1,16,33.7h1.08a2.08,2.08,0,0,1,1.5.63h0a2.12,2.12,0,0,1,.63,1.51v2.47a.78.78,0,1,0,1.56,0V35.84a3.67,3.67,0,0,0-1.08-2.61h0a3.68,3.68,0,0,0-2.37-1.08V26.21l1.21-.28L24,41.41Zm5.5-21.51c.39.1.79.2,1.21.29v6.4a2.15,2.15,0,0,0-.5.35h0a1.81,1.81,0,0,0,0,2.56h0a1.81,1.81,0,0,0,2.56,0h0a1.84,1.84,0,0,0,.53-1.28A1.86,1.86,0,0,0,32.78,33h0a1.8,1.8,0,0,0-.5-.35v-6c2.53.59,5.22,1.36,6.89,2.94,3,2.8,3.63,7.66,4.43,11.91a6.08,6.08,0,0,1-4.66,2.38l-.71-8.47a.78.78,0,0,0-.85-.71.77.77,0,0,0-.71.84l.69,8.18h0c-1.11,2-5.94,3.53-11.79,3.76V41.14l-1.43-4Zm2.09-1.12c3.5-1.65,5.47-4.38,5-8.21-.75-6.53-5.47-16-12.56-16s-11.81,9.49-12.56,16c-.5,3.85,1.56,6.54,5.12,8.18l.73-.17h0l.84-.2.44-.11.09-.11a1.42,1.42,0,0,0,.15-.59,6.85,6.85,0,0,0,10.38,0,1.38,1.38,0,0,0,.15.59l.09.11.45.11.83.2h0Z" transform="translate(-4.41 -0.57)"/></svg>