<svg id="Layer_1" data-name="Layer 1" xmlns="http://www.w3.org/2000/svg" viewBox="0 0 45.19 48"><defs><style>.cls-1{fill:#7c4292;}</style></defs><path class="cls-1" d="M24,11.25a5.63,5.63,0,1,0-5.62-5.62A5.62,5.62,0,0,0,24,11.25Z" transform="translate(-1.41 0)"/><path class="cls-1" d="M17,23.91H31a1.41,1.41,0,0,0,1.41-1.41V18.28A8.41,8.41,0,0,0,29.57,12a8.4,8.4,0,0,1-11.14,0,8.41,8.41,0,0,0-2.87,6.33V22.5A1.41,1.41,0,0,0,17,23.91Z" transform="translate(-1.41 0)"/><path class="cls-1" d="M21.21,33.78l-4.47-4.41a5.84,5.84,0,0,0-7.4-.7.94.94,0,0,0-.14,1.44l5.6,5.6a1.2,1.2,0,1,1-1.7,1.68l-6-6V17.58a2.86,2.86,0,1,0-5.71,0V31.1a6.54,6.54,0,0,0,2,4.67l7.07,7v3.84A1.41,1.41,0,0,0,11.84,48h9.35a1.41,1.41,0,0,0,1.4-1.41V37.11A4.72,4.72,0,0,0,21.21,33.78Z" transform="translate(-1.41 0)"/><path class="cls-1" d="M26.79,33.78l4.47-4.41a5.84,5.84,0,0,1,7.4-.7.94.94,0,0,1,.14,1.44l-5.6,5.6a1.2,1.2,0,1,0,1.7,1.68l6-6V17.58a2.86,2.86,0,1,1,5.71,0V31.1a6.54,6.54,0,0,1-2,4.67l-7.07,7v3.84A1.41,1.41,0,0,1,36.16,48H26.81a1.41,1.41,0,0,1-1.4-1.41V37.11A4.72,4.72,0,0,1,26.79,33.78Z" transform="translate(-1.41 0)"/></svg>