<svg xmlns="http://www.w3.org/2000/svg" viewBox="0 0 474.6 133.94"><defs><style>.cls-1{fill:#814198;}.cls-2{fill:#7f3f98;}.cls-11,.cls-3{fill:#f16667;}.cls-4{fill:none;}.cls-5{fill:#cc6128;}.cls-6{font-size:70.98px;fill:#804098;stroke:#7f3f98;stroke-miterlimit:10;stroke-width:3px;font-family:MyriadPro-Regular, Myriad Pro;letter-spacing:0.02em;}.cls-7{letter-spacing:0.02em;}.cls-8{letter-spacing:0.02em;}.cls-9{letter-spacing:0.02em;}.cls-10,.cls-11{letter-spacing:0.02em;}.cls-11{stroke:#f16667;}</style></defs><g id="Layer_2_copy" data-name="Layer 2 copy"><path class="cls-1" d="M55.64,507a15.51,15.51,0,0,0-2.57,1.4c0-.07-9.32-1.27-10.15-3.35C42.92,505.07,55.26,507,55.64,507Z" transform="translate(-16.62 -407.86)"/><path class="cls-2" d="M36.38,527.75s-17.11-6.82-19.27-17,2.51-20.52,19.68-20.31C36.79,490.4-2.08,498.71,36.38,527.75Z" transform="translate(-16.62 -407.86)"/><path class="cls-2" d="M30.4,488.56s-11.48-25.24,14.5-36.72c0,0,10.85-4.07,21-.42,0,0,35.89,7.83,47.57-6.05,0,0-6.78,16.69-44.33,11C69.1,456.33,24.55,445.16,30.4,488.56Z" transform="translate(-16.62 -407.86)"/><path class="cls-2" d="M45.52,448.92s13.28-10.84,38.39-4.59c0,0,19.61,4.38,29.52-2.61,0,0-3.44,9.91-32.54,5.43S54.49,448.19,45.52,448.92Z" transform="translate(-16.62 -407.86)"/><path class="cls-2" d="M54.81,429.83S68.89,393,107.59,414.7c0,0,14.4,6.78,12.83,24.93,0,0,14.5,21.6-11.68,35.68,0,0,21.7-13.77,7.82-35.05,0,0,.32-25.35-26-29.63C90.59,410.63,69.1,407.86,54.81,429.83Z" transform="translate(-16.62 -407.86)"/><path class="cls-2" d="M118.86,449.55s.73,16.79-13.77,23.26c0,0-2.09,11.78-19.3,14.7l-.91.13h0l-1.42-.29c6.72-2,17.93-6.48,19.55-15.38,0,0-3.24-1.27-3.65-2.71,0,0-.73-1.95,2.5.79s6-2.14,6.47-2.25,7.72-6.78,7.93-14.19c0,0-9.07,8.14-14.82,7.3,0,0,12.47-4.68,16.07-12.41l1.36-1.46S119.38,449.44,118.86,449.55Z" transform="translate(-16.62 -407.86)"/><path class="cls-2" d="M95.44,463.37s1.15,1.72-.68,1.2c0,0-6.15-.79-6.68-3.13,0,0-.1,1.09-1.2-2.19a19.57,19.57,0,0,0,8.56,4.38Z" transform="translate(-16.62 -407.86)"/><path class="cls-3" d="M65.86,464.53a17.83,17.83,0,0,0-12.18-5.43,17.6,17.6,0,0,0-10.77,3.48,19,19,0,0,0-7.85,12.18c-1.58,9.57,5.43,16.22,6,16.72,0,0-12-8.87-5.41-22.77a19.36,19.36,0,0,1,31.42-5.43q5.63,9.74,5.27,10T65.86,464.53Z" transform="translate(-16.62 -407.86)"/><path class="cls-3" d="M114.89,499.1c-5.14-5.51-20.71-9.49-30-11.46h0l-1.42-.29h0c-3.49-.71-5.79-1.09-5.79-1.09-4.49-9.8-3.75-5.82-3.75-5.82,2.5,6.69,1.77,7.28,1.77,7.28-2.61,5.64-2.7,5.79-3,7.41-.7,3.28-4.89,7-6.92,8.58a3.44,3.44,0,0,1-2.24.76c-1.53,0-3.86,0-3.86,0-11.38.73-16.69-11.26-16.69-11.26,1.32,4.93,5.24,9.84,9.83,11.57,4.9,1.86,2.12,2.51,1.2,2.57a5.85,5.85,0,0,0-2,2.26,12.43,12.43,0,0,0,.57,3.74c.56,1.31,1.26.41,1.26.41-6.31-11,20-5.33,20.35-5.64s.31-10.64.31-10.64c-.63-4,.8-8.82,4-9.7A7,7,0,0,1,81,488l.57.11h0c7.33,1.5,23.52,7.33,23.52,7.33,22,10.38,11.9,27.33,11.58,27.84C127.4,509.52,114.89,499.1,114.89,499.1Zm-42.26,7.3-4.32-.47-2.86-.47c3.46-1.56,6.75-6.53,7.18-7.27Z" transform="translate(-16.62 -407.86)"/><path class="cls-3" d="M103,510.14c-6.67-4.36-14.31,4.39-14.31,4.39q-1.49,5.81-3,11.6h0l-.67.61-.77-.87a2,2,0,0,1-.28-.35,3,3,0,0,1,0-2.22c.47-2.2.15-1.28.45-2.3,1.1-3.68,2.42-5.86,1.88-6.28-.08-.06-.22-.11-.51,0-4.84,3.8-15.81,2-15.81,2h-.06c-8.86-.63-9.91-3.86-9.91-3.86,4.94,2.2,9.55,2.24,12.31,2.75,19.27,3.58,15.86-16,15.86-16,2.4,0,1.42,10.95,1.42,10.95C96.29,504.36,102.73,509.92,103,510.14Z" transform="translate(-16.62 -407.86)"/><path class="cls-2" d="M95.79,521.84l-.61.31c-1.78-.32-7.16,4.59-9.52,6.84-.69.66-1.12,1.09-1.12,1.09a6,6,0,0,0-.86-1.43C80.58,524.59,71.19,518,71.19,518l-1.26-1.26H70s2.65.16,5.92.41a103.31,103.31,0,0,1,9.15,9.6c.45-.43.89-.81,1.32-1.17C92.52,520.38,95.79,521.84,95.79,521.84Z" transform="translate(-16.62 -407.86)"/><path class="cls-4" d="M52.75,513.6l-.25-.2" transform="translate(-16.62 -407.86)"/><path class="cls-4" d="M54.49,506.45a9.47,9.47,0,0,0-1.08.57" transform="translate(-16.62 -407.86)"/><path class="cls-5" d="M84.31,522.6" transform="translate(-16.62 -407.86)"/><text class="cls-6" transform="translate(110.88 114.69)">m<tspan class="cls-7" x="60.69" y="0">a</tspan><tspan class="cls-8" x="96.11" y="0">t</tspan><tspan x="120.67" y="0">e</tspan><tspan class="cls-9" x="157.73" y="0">r</tspan><tspan class="cls-10" x="182.71" y="0">na</tspan><tspan class="cls-11" x="259.3" y="0">net</tspan></text></g></svg>